<svg width="270" height="64" viewBox="0 0 270 64" fill="none" xmlns="http://www.w3.org/2000/svg">
  <defs>
    <linearGradient id="shield" x1="12" y1="6" x2="58" y2="56" gradientUnits="userSpaceOnUse">
      <stop stop-color="#22D3EE"/>
      <stop offset="1" stop-color="#2563EB"/>
    </linearGradient>
    <linearGradient id="title" x1="78" y1="16" x2="262" y2="50" gradientUnits="userSpaceOnUse">
      <stop stop-color="#F8FAFC"/>
      <stop offset="1" stop-color="#BFDBFE"/>
    </linearGradient>
  </defs>

  <g transform="translate(6 4)">
    <path d="M35.2 4H16.8C12.4 4 8.8 7.6 8.8 12V27.3C8.8 39.6 17.2 50.1 30.8 55.2L35.9 57.1L41 55.2C54.6 50.1 63 39.6 63 27.3V12C63 7.6 59.4 4 55 4H35.2Z" fill="#081426"/>
    <path d="M35.2 5.5H16.8C13.2 5.5 10.3 8.4 10.3 12V27.3C10.3 38.9 18.2 48.8 31.3 53.7L35.9 55.4L40.5 53.7C53.6 48.8 61.5 38.9 61.5 27.3V12C61.5 8.4 58.6 5.5 55 5.5H35.2Z" stroke="url(#shield)" stroke-width="2"/>
    <circle cx="35.9" cy="24.5" r="11.3" fill="#F8FAFC"/>
    <path d="M35.9 15.8L40.2 18.9L38.6 24L33.2 24L31.6 18.9L35.9 15.8Z" fill="#1D4ED8"/>
    <path d="M33.2 24L29.7 28.4L32.4 33.2L35.9 31.7L35.9 26.4L33.2 24Z" fill="#22D3EE"/>
    <path d="M38.6 24L42.1 28.4L39.4 33.2L35.9 31.7L35.9 26.4L38.6 24Z" fill="#2563EB"/>
    <path d="M35.9 31.7L32.4 33.2L33.5 36.7H38.3L39.4 33.2L35.9 31.7Z" fill="#0F172A"/>
    <path d="M35.9 36.8V44.3" stroke="#93C5FD" stroke-width="2" stroke-linecap="round"/>
    <path d="M30.9 40.8H40.9" stroke="#93C5FD" stroke-width="2" stroke-linecap="round"/>
  </g>

  <text x="78" y="33" fill="url(#title)" font-size="26" font-weight="800" letter-spacing="1.4" font-family="Tahoma, Verdana, sans-serif">
    GAMEGRID
  </text>
  <text x="78" y="48" fill="#7DD3FC" font-size="10" letter-spacing="2.1" font-family="Tahoma, Verdana, sans-serif">
    COPA 2026
  </text>
</svg>
