<svg width="270" height="64" viewBox="0 0 270 64" fill="none" xmlns="http://www.w3.org/2000/svg">
  <defs>
    <linearGradient id="bgRing" x1="8" y1="6" x2="58" y2="58" gradientUnits="userSpaceOnUse">
      <stop stop-color="#22D3EE"/>
      <stop offset="1" stop-color="#3B82F6"/>
    </linearGradient>
    <linearGradient id="accent" x1="0" y1="0" x2="1" y2="1">
      <stop stop-color="#FDE047"/>
      <stop offset="1" stop-color="#F97316"/>
    </linearGradient>
    <linearGradient id="wordmark" x1="78" y1="15" x2="262" y2="54" gradientUnits="userSpaceOnUse">
      <stop stop-color="#F8FAFC"/>
      <stop offset="1" stop-color="#C7D2FE"/>
    </linearGradient>
  </defs>

  <g transform="translate(6 4)">
    <circle cx="26" cy="28" r="23" fill="#081426"/>
    <circle cx="26" cy="28" r="22" stroke="url(#bgRing)" stroke-width="2"/>
    <path d="M26 12L33.5 17.2L30.7 26L21.3 26L18.5 17.2L26 12Z" fill="url(#accent)"/>
    <path d="M21.3 26L15.5 33.5L20 42L26 39.4L26 30.2L21.3 26Z" fill="#22D3EE" fill-opacity="0.88"/>
    <path d="M30.7 26L36.5 33.5L32 42L26 39.4L26 30.2L30.7 26Z" fill="#3B82F6" fill-opacity="0.92"/>
    <path d="M26 39.4L20 42L22 48.2H30L32 42L26 39.4Z" fill="#2563EB"/>
    <circle cx="26" cy="28" r="8.1" stroke="#E2E8F0" stroke-opacity="0.85" stroke-width="1.4"/>
    <path d="M8 28H44M26 10V46" stroke="#94A3B8" stroke-opacity="0.28" stroke-width="1"/>
  </g>

  <text x="74" y="34.5" fill="url(#wordmark)" font-size="28" font-weight="800" letter-spacing="1.5" font-family="Verdana, Arial, sans-serif">
    GAMEGRID
  </text>
  <text x="74" y="49" fill="#67E8F9" font-size="9.8" letter-spacing="2.2" font-family="Verdana, Arial, sans-serif">
    WORLD CUP HUB
  </text>
</svg>
